<svg width="119" height="119" viewBox="0 0 119 119" fill="none" xmlns="http://www.w3.org/2000/svg">
<g>
  <circle cx="59.5" cy="59.5" r="59.5" fill="#F8AFA6"/>
  <path d="M59.5 24C61.9853 34.5 74.5 34.5 74.5 47C74.5 59.5 61.9853 59.5 59.5 70C57.0147 59.5 44.5 59.5 44.5 47C44.5 34.5 57.0147 34.5 59.5 24Z" stroke="#E57373" stroke-width="2" fill="none"/>
  <circle cx="59.5" cy="47" r="5" fill="#E57373"/>
  <path d="M59.5 94C57.0147 83.5 44.5 83.5 44.5 71C44.5 58.5 57.0147 58.5 59.5 48C61.9853 58.5 74.5 58.5 74.5 71C74.5 83.5 61.9853 83.5 59.5 94Z" stroke="#E57373" stroke-width="2" fill="none"/>
  <circle cx="59.5" cy="71" r="5" fill="#E57373"/>
</g>
</svg>
